<svg width="50" height="50" viewBox="0 0 34 41" fill="none" xmlns="http://www.w3.org/2000/svg">
<path fill-rule="evenodd" clip-rule="evenodd" d="M17 3.60007C13.3931 3.60007 9.93384 5.03293 7.38335 7.58342C4.83285 10.1339 3.4 13.5931 3.4 17.2001C3.4 22.4668 6.82675 27.5773 10.5841 31.5434C12.428 33.4898 14.2777 35.0832 15.6684 36.1905C16.1859 36.6026 16.6379 36.9459 17 37.2135C17.3621 36.9459 17.8141 36.6026 18.3316 36.1905C19.7223 35.0832 21.572 33.4898 23.4159 31.5434C27.1732 27.5773 30.6 22.4668 30.6 17.2001C30.6 13.5931 29.1671 10.1339 26.6167 7.58342C24.0662 5.03293 20.6069 3.60007 17 3.60007ZM17 39.3001C16.057 40.7146 16.0566 40.7143 16.0561 40.7139L16.0512 40.7107L16.0399 40.7031L16.0009 40.6767C15.9678 40.6543 15.9206 40.622 15.8602 40.5802C15.7395 40.4965 15.566 40.3747 15.3472 40.2167C14.9099 39.9009 14.2908 39.4398 13.5504 38.8503C12.0723 37.6732 10.097 35.9729 8.11588 33.8817C4.22325 29.7728 0 23.8334 0 17.2001C1.01328e-07 12.6914 1.79107 8.36738 4.97918 5.17926C8.1673 1.99114 12.4913 0.200073 17 0.200073C21.5087 0.200073 25.8327 1.99114 29.0208 5.17926C32.2089 8.36738 34 12.6914 34 17.2001C34 23.8334 29.7768 29.7728 25.8841 33.8817C23.903 35.9729 21.9277 37.6732 20.4496 38.8503C19.7092 39.4398 19.0901 39.9009 18.6528 40.2167C18.434 40.3747 18.2605 40.4965 18.1398 40.5802C18.0794 40.622 18.0322 40.6543 17.9991 40.6767L17.9601 40.7031L17.9488 40.7107L17.9452 40.7131C17.9447 40.7134 17.943 40.7146 17 39.3001ZM17 39.3001L17.943 40.7146C17.372 41.0952 16.6271 41.0946 16.0561 40.7139L17 39.3001Z" fill="url(#paint0_linear_91_17)"/>
<path fill-rule="evenodd" clip-rule="evenodd" d="M17 13.8C15.1222 13.8 13.6 15.3223 13.6 17.2C13.6 19.0778 15.1222 20.6 17 20.6C18.8777 20.6 20.4 19.0778 20.4 17.2C20.4 15.3223 18.8777 13.8 17 13.8ZM10.2 17.2C10.2 13.4445 13.2444 10.4 17 10.4C20.7555 10.4 23.8 13.4445 23.8 17.2C23.8 20.9556 20.7555 24 17 24C13.2444 24 10.2 20.9556 10.2 17.2Z" fill="url(#paint1_linear_91_17)"/>
<defs>
<linearGradient id="paint0_linear_91_17" x1="17" y1="0.200073" x2="17" y2="40.9998" gradientUnits="userSpaceOnUse">
<stop stop-color="#1AA028"/>
<stop offset="1" stop-color="#136B1B"/>
</linearGradient>
<linearGradient id="paint1_linear_91_17" x1="17" y1="10.4" x2="17" y2="24" gradientUnits="userSpaceOnUse">
<stop stop-color="#1AA028"/>
<stop offset="1" stop-color="#136B1B"/>
</linearGradient>
</defs>
</svg>
