<svg width="30" height="48" viewBox="0 0 30 48" fill="none" xmlns="http://www.w3.org/2000/svg">
<path fill-rule="evenodd" clip-rule="evenodd" d="M3 11.9992C3.00022 9.68979 3.66677 7.42953 4.91968 5.48959C6.17259 3.54965 7.95864 2.01245 10.0635 1.06243C12.1684 0.112415 14.5027 -0.21006 16.7863 0.133701C19.0699 0.477462 21.2058 1.47286 22.9377 3.00045C24.6696 4.52804 25.924 6.52293 26.5503 8.74575C27.1766 10.9686 27.1482 13.3249 26.4685 15.532C25.7889 17.7391 24.4869 19.7032 22.7187 21.1887C20.9505 22.6741 18.7912 23.6178 16.5 23.9064V40.4998C16.5 40.8977 16.342 41.2792 16.0607 41.5605C15.7794 41.8418 15.3978 41.9999 15 41.9999C14.6022 41.9999 14.2206 41.8418 13.9393 41.5605C13.658 41.2792 13.5 40.8977 13.5 40.4998V23.9094C10.5989 23.5439 7.93106 22.1317 5.99764 19.9381C4.06422 17.7444 2.99827 14.9233 3 11.9992ZM10.479 37.7218C10.5441 38.114 10.4507 38.516 10.2195 38.8395C9.98833 39.163 9.63817 39.3814 9.246 39.4468C7.11 39.8008 5.406 40.3318 4.281 40.9258C3.86773 41.1245 3.49214 41.3935 3.171 41.7209C3.0984 41.8 3.04049 41.8914 3 41.9909V41.9999L3.006 42.0239C3.0178 42.0587 3.03393 42.092 3.054 42.1229C3.17241 42.2965 3.31951 42.4487 3.489 42.5729C3.984 42.9629 4.794 43.3829 5.928 43.7579C8.181 44.5079 11.388 44.9999 15 44.9999C18.612 44.9999 21.819 44.5109 24.072 43.7579C25.206 43.3799 26.016 42.9629 26.511 42.5729C26.6815 42.4488 26.8296 42.2966 26.949 42.1229C26.968 42.0918 26.9831 42.0586 26.994 42.0239L27 41.9999V41.9879C26.9595 41.8884 26.9016 41.797 26.829 41.7179C26.5077 41.3916 26.1321 41.1236 25.719 40.9258C24.591 40.3318 22.89 39.8008 20.754 39.4468C20.555 39.4198 20.3635 39.3532 20.1908 39.2509C20.018 39.1485 19.8676 39.0125 19.7484 38.8509C19.6292 38.6893 19.5436 38.5055 19.4968 38.3102C19.45 38.115 19.4428 37.9123 19.4757 37.7142C19.5087 37.5162 19.5811 37.3267 19.6886 37.1571C19.7961 36.9876 19.9366 36.8413 20.1016 36.727C20.2667 36.6127 20.4531 36.5327 20.6497 36.4918C20.8462 36.4509 21.049 36.4498 21.246 36.4887C23.556 36.8697 25.602 37.4728 27.117 38.2708C28.5 38.9998 30 40.1998 30 41.9999C30 43.2779 29.22 44.2559 28.368 44.9309C27.498 45.6149 26.328 46.17 25.02 46.605C22.386 47.484 18.843 48 15 48C11.157 48 7.614 47.484 4.98 46.605C3.672 46.17 2.502 45.6149 1.632 44.9309C0.78 44.2559 0 43.2779 0 41.9999C0 40.2028 1.5 38.9998 2.883 38.2708C4.398 37.4728 6.444 36.8697 8.754 36.4887C9.14623 36.4237 9.54824 36.517 9.8717 36.7482C10.1952 36.9794 10.4136 37.3296 10.479 37.7218Z" fill="url(#paint0_linear_31_105)"/>
<defs>
<linearGradient id="paint0_linear_31_105" x1="15" y1="0" x2="15" y2="48" gradientUnits="userSpaceOnUse">
<stop stop-color="#1AA028"/>
<stop offset="1" stop-color="#136B1B"/>
</linearGradient>
</defs>
</svg>
